<?xml version="1.0" encoding="UTF-8"?>
<svg id="Layer_1" data-name="Layer 1" xmlns="http://www.w3.org/2000/svg" viewBox="0 0 57 48">
  <defs>
    <style>
      .cls-1 {
        stroke-width: 0px;
      }

      .cls-1, .cls-2 {
        fill: #aed136;
      }

      .cls-2 {
        font-family: Montserrat-Bold, Montserrat;
        font-size: 26.25px;
        font-weight: 700;
      }
    </style>
  </defs>
  <path class="cls-1" d="M27.69,10.9c.56.08,1.12.13,1.67.25,4.23.91,7.28,3.35,8.9,7.35,1.68,4.15,1.11,8.12-1.48,11.79-.04.06-.08.11-.2.27.11.07.24.12.33.21,2.83,2.83,5.66,5.65,8.49,8.48.62.62.66,1.54.09,2.15-.58.63-1.54.65-2.16.04-.7-.68-1.39-1.38-2.08-2.08-2.17-2.17-4.34-4.34-6.51-6.52-.07-.07-.14-.14-.22-.21-.37.25-.72.51-1.09.73-2.09,1.29-4.37,1.9-6.83,1.82-5.7-.18-10.57-4.44-11.52-10.07-.06-.38-.12-.75-.18-1.13,0-.63,0-1.25,0-1.88.05-.33.09-.65.14-.98.39-2.33,1.36-4.4,2.94-6.16,1.83-2.03,4.08-3.32,6.76-3.84.53-.1,1.07-.16,1.61-.24.44,0,.89,0,1.33,0ZM36.16,23.05c-.01-5.06-4.11-9.13-9.18-9.12-4.99.01-9.07,4.11-9.06,9.13,0,5.07,4.11,9.13,9.2,9.12,4.96-.01,9.06-4.15,9.04-9.13Z"/>
  <text class="cls-2" transform="translate(18.87 32.32)"><tspan x="0" y="0">+</tspan></text>
</svg>